# This file uses centimeters as units for non-parametric coordinates.

mtllib Uth_Tongue_MShShape.mtl
g skinCluster26Set tweakSet40
v -0.951683 164.033997 5.638639
v -2.066000 163.572998 5.821000
v -1.837050 163.330994 5.979280
v -1.126870 162.673004 6.331440
v 0.022400 162.595001 6.360180
v -1.783090 163.830994 5.718120
v -0.951683 164.927994 6.716220
v -2.106140 164.514008 6.838250
v -1.872610 164.119003 7.065310
v -1.126870 163.862000 7.068410
v 0.022400 163.787994 7.090860
v -1.811870 164.745010 6.770150
v -1.275490 165.533997 8.070448
v -2.216680 164.916000 8.179530
v -2.173060 164.733994 8.172340
v -0.919293 164.171997 8.184820
v 0.022400 164.084000 8.182340
v -2.098770 165.274002 8.086760
v -1.102260 165.766006 8.950680
v -2.126050 165.182999 9.076720
v -2.012960 164.947006 9.090680
v -1.021000 164.472000 9.372139
v 0.022400 164.166000 9.481390
v -1.949540 165.533005 8.982040
v -0.730080 165.720001 10.480700
v -1.561260 165.266006 10.552900
v -1.355780 165.028000 10.651700
v -0.674644 164.850006 10.805300
v 0.022400 164.792999 10.831200
v -1.376110 165.604004 10.532800
v -0.566068 165.615997 11.176300
v -1.138890 165.593002 11.010700
v -0.531293 165.016998 11.344800
v -1.211650 165.279999 11.206700
v -1.110820 165.078995 11.147600
v -0.498925 165.298004 11.613800
v 0.022400 163.919006 5.680720
v 0.022400 165.371002 8.086370
v 0.022400 165.649994 8.955470
v 0.996483 164.033997 5.638639
v 1.827890 163.830994 5.718120
v 2.110800 163.572998 5.821000
v 1.881850 163.330994 5.979280
v 1.171670 162.673004 6.331440
v 0.996483 164.927994 6.716220
v 1.856670 164.745010 6.770150
v 2.150940 164.514008 6.838250
v 1.917410 164.119003 7.065310
v 1.171670 163.862000 7.068410
v 1.153900 165.533997 8.070448
v 2.143570 165.274002 8.086760
v 2.261480 164.916000 8.179530
v 2.217860 164.733994 8.172340
v 1.130490 164.171997 8.184820
v 1.147060 165.766006 8.950680
v 1.994340 165.533005 8.982040
v 2.170850 165.182999 9.076720
v 2.057760 164.947006 9.090680
v 1.065800 164.472000 9.372139
v 0.774880 165.720001 10.480700
v 1.420910 165.604004 10.532800
v 1.606060 165.266006 10.552900
v 1.400580 165.028000 10.651700
v 0.719444 164.850006 10.805300
v 0.610868 165.615997 11.176300
v 1.183690 165.593002 11.010700
v 1.256450 165.279999 11.206700
v 1.155620 165.078995 11.147600
v 0.576093 165.016998 11.344800
v 0.022400 164.983002 11.436900
v 0.543725 165.298004 11.613800
v 0.022400 165.266998 11.714400
v 0.022400 164.820007 6.747870
v 0.022400 165.643997 10.528600
v 0.022400 165.615005 11.290600
vt 0.070367 0.851846
vt 0.047531 0.848869
vt 0.041199 0.847863
vt 0.022944 0.847889
vt 0.002978 0.841706
vt 0.054500 0.849309
vt 0.073830 0.828338
vt 0.054424 0.826425
vt 0.046123 0.824898
vt 0.031983 0.823853
vt 0.011570 0.817832
vt 0.060384 0.826890
vt 0.072016 0.807059
vt 0.056011 0.806132
vt 0.053489 0.806535
vt 0.033081 0.802932
vt 0.017415 0.798130
vt 0.061033 0.806703
vt 0.074722 0.795368
vt 0.058853 0.794572
vt 0.055435 0.793854
vt 0.042077 0.784874
vt 0.025564 0.776023
vt 0.063876 0.795525
vt 0.078525 0.773655
vt 0.062981 0.773167
vt 0.059191 0.769828
vt 0.050740 0.761272
vt 0.040723 0.753991
vt 0.068685 0.773560
vt 0.081135 0.763030
vt 0.071063 0.764918
vt 0.054745 0.751748
vt 0.065447 0.761243
vt 0.061381 0.760702
vt 0.082856 0.755086
vt 0.088512 0.853696
vt 0.089351 0.808279
vt 0.089495 0.795648
vt 0.106795 0.852540
vt 0.122862 0.850576
vt 0.129890 0.850375
vt 0.136257 0.849591
vt 0.154555 0.850333
vt 0.104174 0.828815
vt 0.117700 0.827855
vt 0.123700 0.827566
vt 0.132079 0.826272
vt 0.146397 0.825785
vt 0.104603 0.807637
vt 0.117622 0.807574
vt 0.122651 0.807152
vt 0.125164 0.807633
vt 0.143196 0.805479
vt 0.104396 0.795761
vt 0.115161 0.796288
vt 0.120213 0.795501
vt 0.123653 0.794897
vt 0.137446 0.786279
vt 0.101189 0.774000
vt 0.111023 0.774194
vt 0.116745 0.773968
vt 0.120634 0.770737
vt 0.129289 0.762416
vt 0.098900 0.763310
vt 0.108897 0.765490
vt 0.114621 0.761982
vt 0.118696 0.761557
vt 0.125549 0.752823
vt 0.047439 0.744722
vt 0.097400 0.755342
vt 0.090110 0.754327
vt 0.088986 0.829792
vt 0.089866 0.773038
vt 0.090028 0.761897
vt 0.174967 0.844876
vt 0.167231 0.820422
vt 0.161895 0.800134
vt 0.153969 0.777690
vt 0.139443 0.755422
vt 0.069512 0.758073
vt 0.080020 0.749331
vt 0.069609 0.753791
vt 0.090283 0.747697
vt 0.133004 0.746023
vt 0.110635 0.758713
vt 0.110663 0.754445
vt 0.100424 0.749700
vn -0.002281 0.854368 -0.519664
vn 0.000000 0.766865 -0.641809
vn -0.054730 0.762735 -0.644391
vn -0.060859 0.844143 -0.532652
vn -0.438990 0.671857 -0.596571
vn -0.506683 0.704681 -0.496686
vn -0.985786 0.093798 -0.139388
vn -0.986949 0.064144 -0.147704
vn -0.704140 -0.518960 0.484631
vn -0.704710 -0.616320 0.351474
vn -0.296741 -0.573920 0.763257
vn -0.269362 -0.784450 0.558643
vn 0.000000 -0.524567 0.851369
vn -0.001501 -0.798762 0.601646
vn -0.076646 0.939748 -0.333166
vn -0.004379 0.941802 -0.336140
vn -0.624628 0.738873 -0.252798
vn -0.999414 0.031950 -0.012318
vn -0.704030 -0.675608 0.218849
vn -0.270532 -0.929990 0.248861
vn -0.005122 -0.977625 0.210294
vn -0.075228 0.990985 -0.110861
vn -0.002138 0.989858 -0.142045
vn -0.629828 0.775608 0.041822
vn -0.970269 0.018539 0.241319
vn -0.681724 -0.675032 0.282107
vn -0.318081 -0.914410 0.250359
vn -0.003766 -0.966024 0.258426
vn -0.050612 0.996033 0.073188
vn 0.000000 0.998978 0.045194
vn -0.545731 0.800291 0.248417
vn -0.908399 -0.006452 0.418055
vn -0.591420 -0.725328 0.352310
vn -0.247180 -0.918654 0.308182
vn -0.000000 -0.941755 0.336301
vn -0.130401 0.908039 0.398070
vn -0.000000 0.930714 0.365749
vn -0.453359 0.771783 0.445890
vn -0.706456 0.022653 0.707395
vn -0.491587 -0.700797 0.516939
vn -0.232381 -0.811284 0.536486
vn 0.000000 -0.847097 0.531439
vn -0.327137 0.074993 0.941996
vn -0.000001 0.077806 0.996969
vn 0.054731 0.762733 -0.644394
vn 0.053453 0.846084 -0.530363
vn 0.502549 0.709387 -0.494181
vn 0.438991 0.671858 -0.596569
vn 0.986950 0.064145 -0.147702
vn 0.985786 0.093799 -0.139386
vn 0.704140 -0.518960 0.484631
vn 0.711154 -0.614149 0.342171
vn 0.277245 -0.787248 0.550796
vn 0.296741 -0.573920 0.763256
vn 0.060653 0.940261 -0.335009
vn 0.614845 0.745251 -0.258004
vn 0.999414 0.031950 -0.012319
vn 0.715058 -0.664383 0.217455
vn 0.280908 -0.926221 0.251407
vn 0.066671 0.991055 -0.115608
vn 0.625781 0.779259 0.033954
vn 0.970269 0.018539 0.241320
vn 0.686777 -0.666726 0.289506
vn 0.321718 -0.909883 0.261937
vn 0.050612 0.996033 0.073188
vn 0.545730 0.800292 0.248417
vn 0.908396 -0.006452 0.418061
vn 0.591420 -0.725328 0.352310
vn 0.247180 -0.918656 0.308176
vn 0.130403 0.908039 0.398071
vn 0.453360 0.771787 0.445880
vn 0.706451 0.022664 0.707399
vn 0.491583 -0.700792 0.516949
vn 0.232379 -0.811284 0.536487
vn 0.327133 0.075000 0.941997
s 1
g Uth_Tongue_MSh Mouth_Grp Head_Grp Mesh CharacterRoot
usemtl Head_SG
f 73/73/1 37/37/2 1/1/3 7/7/4
f 7/7/4 1/1/3 6/6/5 12/12/6
f 6/6/5 2/2/7 8/8/8 12/12/6
f 8/8/8 2/2/7 3/3/9 9/9/10
f 9/9/10 3/3/9 4/4/11 10/10/12
f 10/10/12 4/4/11 5/5/13 11/11/14
f 73/73/1 7/7/4 13/13/15 38/38/16
f 18/18/17 13/13/15 7/7/4 12/12/6
f 14/14/18 18/18/17 12/12/6 8/8/8
f 15/15/19 14/14/18 8/8/8 9/9/10
f 16/16/20 15/15/19 9/9/10 10/10/12
f 17/17/21 16/16/20 10/10/12 11/11/14
f 38/38/16 13/13/15 19/19/22 39/39/23
f 24/24/24 19/19/22 13/13/15 18/18/17
f 20/20/25 24/24/24 18/18/17 14/14/18
f 14/14/18 15/15/19 21/21/26 20/20/25
f 22/22/27 21/21/26 15/15/19 16/16/20
f 23/23/28 22/22/27 16/16/20 17/17/21
f 39/39/23 19/19/22 25/25/29 74/74/30
f 30/30/31 25/25/29 19/19/22 24/24/24
f 26/26/32 30/30/31 24/24/24 20/20/25
f 27/27/33 26/26/32 20/20/25 21/21/26
f 28/28/34 27/27/33 21/21/26 22/22/27
f 29/29/35 28/28/34 22/22/27 23/23/28
f 74/74/30 25/25/29 31/31/36 75/75/37
f 32/32/38 31/31/36 25/25/29 30/30/31
f 34/34/39 32/32/38 30/30/31 26/26/32
f 34/34/39 26/26/32 27/27/33 35/35/40
f 33/33/41 35/35/40 27/27/33 28/28/34
f 70/70/42 33/33/41 28/28/34 29/29/35
f 75/75/37 31/31/36 36/36/43 72/72/44
f 34/81/39 36/36/43 31/31/36 32/32/38
f 34/81/39 35/83/40 33/82/41 36/36/43
f 72/72/44 36/36/43 33/82/41 70/84/42
f 40/40/45 37/37/2 73/73/1 45/45/46
f 40/40/45 45/45/46 46/46/47 41/41/48
f 41/41/48 46/46/47 47/47/49 42/42/50
f 43/43/51 42/42/50 47/47/49 48/48/52
f 43/43/51 48/48/52 49/49/53 44/44/54
f 44/44/54 49/49/53 11/77/14 5/76/13
f 50/50/55 45/45/46 73/73/1 38/38/16
f 51/51/56 46/46/47 45/45/46 50/50/55
f 52/52/57 47/47/49 46/46/47 51/51/56
f 53/53/58 48/48/52 47/47/49 52/52/57
f 54/54/59 49/49/53 48/48/52 53/53/58
f 17/78/21 11/77/14 49/49/53 54/54/59
f 55/55/60 50/50/55 38/38/16 39/39/23
f 56/56/61 51/51/56 50/50/55 55/55/60
f 57/57/62 52/52/57 51/51/56 56/56/61
f 52/52/57 57/57/62 58/58/63 53/53/58
f 59/59/64 54/54/59 53/53/58 58/58/63
f 23/79/28 17/78/21 54/54/59 59/59/64
f 60/60/65 55/55/60 39/39/23 74/74/30
f 61/61/66 56/56/61 55/55/60 60/60/65
f 62/62/67 57/57/62 56/56/61 61/61/66
f 63/63/68 58/58/63 57/57/62 62/62/67
f 64/64/69 59/59/64 58/58/63 63/63/68
f 29/80/35 23/79/28 59/59/64 64/64/69
f 65/65/70 60/60/65 74/74/30 75/75/37
f 66/66/71 61/61/66 60/60/65 65/65/70
f 67/67/72 62/62/67 61/61/66 66/66/71
f 67/67/72 68/68/73 63/63/68 62/62/67
f 69/69/74 64/64/69 63/63/68 68/68/73
f 70/85/42 29/80/35 64/64/69 69/69/74
f 75/75/37 72/72/44 71/71/75 65/65/70
f 65/65/70 71/71/75 67/86/72 66/66/71
f 69/88/74 68/87/73 67/86/72 71/71/75
f 72/72/44 70/84/42 69/88/74 71/71/75
