# This file uses centimeters as units for non-parametric coordinates.

mtllib Uth_Teeth_Lo_MshShape.mtl
g skinCluster25Set tweakSet39
v 2.323120 163.528000 9.123950
v 3.532510 163.936020 9.061648
v 2.323120 163.410004 7.927169
v 3.532510 163.837997 7.861980
v 2.298550 165.432007 9.093440
v 3.507810 165.449997 9.091890
v 2.298320 165.339996 7.828570
v 3.507580 165.358002 7.827021
v 2.075060 163.460999 9.980780
v 2.983630 163.828995 10.185200
v 2.046390 165.307999 9.784510
v 3.059640 165.319000 10.094800
v 1.788100 163.311005 10.871700
v 2.390690 163.731995 11.160100
v 1.661610 165.199997 10.719700
v 2.396300 165.175003 11.334300
v 1.205600 163.423996 11.610299
v 1.964500 163.660004 12.125900
v 1.013400 165.054993 11.387800
v 1.772300 165.167999 12.131000
v 0.803830 163.477005 11.960000
v 1.013650 163.608002 12.817700
v 0.725817 165.119995 11.814400
v 0.935635 165.274002 12.825900
v 0.000000 163.632004 12.975500
v -2.298550 165.432007 9.093440
v -3.507810 165.449997 9.091890
v -3.507580 165.358002 7.827021
v -2.298320 165.339996 7.828570
v -3.532510 163.936020 9.061648
v -3.532510 163.837997 7.861980
v -2.323120 163.410004 7.927169
v -2.323120 163.528000 9.123950
v -2.046390 165.307999 9.784510
v -3.059640 165.319000 10.094800
v -2.983630 163.828995 10.185200
v -2.075060 163.460999 9.980780
v -1.661610 165.199997 10.719700
v -2.396310 165.175003 11.334300
v -2.390690 163.731995 11.160100
v -1.788100 163.311005 10.871700
v -1.013400 165.054993 11.387800
v -1.772300 165.167999 12.131000
v -1.964500 163.660004 12.125900
v -1.205600 163.423996 11.610299
v -0.725817 165.119995 11.814400
v -0.935635 165.274002 12.825900
v -1.013650 163.608002 12.817700
v -0.803830 163.477005 11.960000
v 0.000000 165.134995 11.916300
v 0.000000 165.292007 12.945200
v 0.000000 163.498001 12.097500
vt 0.056177 0.932236
vt 0.043225 0.980888
vt 0.015594 0.981077
vt 0.029853 0.979134
vt 0.051083 0.953893
vt 0.045874 0.965512
vt 0.037192 0.949524
vt 0.033061 0.962396
vt 0.066394 0.933457
vt 0.056943 0.983396
vt 0.060036 0.955035
vt 0.057036 0.967000
vt 0.077284 0.933072
vt 0.069556 0.985636
vt 0.073375 0.957107
vt 0.072923 0.969380
vt 0.088401 0.935219
vt 0.081173 0.987677
vt 0.086540 0.957312
vt 0.084588 0.971111
vt 0.095043 0.936292
vt 0.093935 0.989457
vt 0.094041 0.959189
vt 0.095757 0.972251
vt 0.105409 0.989596
vt 0.159049 0.952563
vt 0.164549 0.964121
vt 0.177355 0.960680
vt 0.172906 0.947860
vt 0.167572 0.979494
vt 0.180966 0.977422
vt 0.195336 0.979044
vt 0.153428 0.930936
vt 0.150084 0.953905
vt 0.153367 0.965885
vt 0.153842 0.982326
vt 0.143196 0.932409
vt 0.136773 0.956299
vt 0.137507 0.968632
vt 0.141238 0.984848
vt 0.132258 0.932295
vt 0.123590 0.956791
vt 0.125837 0.970650
vt 0.129650 0.987144
vt 0.121158 0.934739
vt 0.116151 0.958866
vt 0.114708 0.972046
vt 0.116950 0.989210
vt 0.114529 0.935994
vt 0.105150 0.958698
vt 0.105198 0.972195
vt 0.104752 0.936821
vt 0.042976 0.928015
vt 0.019757 0.959829
vt 0.190662 0.957792
vt 0.166591 0.926387
vn 0.553987 0.559782 -0.616233
vn -0.586904 0.536003 -0.606832
vn -0.713978 0.694602 -0.088111
vn 0.670803 0.720609 0.175347
vn 0.976277 0.004802 0.216472
vn 0.699512 -0.016151 -0.714439
vn -0.714459 -0.036276 -0.698736
vn -0.987357 -0.022847 -0.156858
vn -0.711923 0.684325 -0.157689
vn 0.603047 0.687000 0.405420
vn 0.889034 -0.022626 0.457282
vn -0.941757 -0.051999 -0.332250
vn -0.671929 0.663590 -0.328875
vn 0.575845 0.710182 0.405023
vn 0.865126 -0.007553 0.501498
vn -0.852384 -0.106047 -0.512050
vn -0.578818 0.627481 -0.520805
vn 0.504795 0.748794 0.429523
vn 0.748687 0.036648 0.661910
vn -0.747502 -0.135802 -0.650229
vn -0.329589 0.632356 -0.701069
vn 0.287079 0.775321 0.562550
vn 0.390193 0.030415 0.920230
vn -0.482689 -0.125714 -0.866722
vn -0.000001 0.616390 -0.787441
vn 0.000000 0.765472 0.643469
vn 0.000000 0.009984 0.999950
vn -0.000001 -0.102866 -0.994695
vn -0.553988 0.559783 -0.616231
vn -0.670803 0.720608 0.175351
vn 0.713979 0.694602 -0.088105
vn 0.586904 0.536004 -0.606830
vn -0.699512 -0.016151 -0.714439
vn -0.976277 0.004802 0.216472
vn 0.714459 -0.036276 -0.698736
vn 0.987357 -0.022847 -0.156856
vn 0.711924 0.684325 -0.157682
vn -0.603048 0.686997 0.405423
vn -0.889035 -0.022628 0.457280
vn 0.941758 -0.051999 -0.332248
vn 0.671930 0.663590 -0.328875
vn -0.575846 0.710181 0.405025
vn -0.865126 -0.007556 0.501498
vn 0.852384 -0.106047 -0.512050
vn 0.578818 0.627480 -0.520806
vn -0.504795 0.748794 0.429522
vn -0.748685 0.036647 0.661912
vn 0.747504 -0.135802 -0.650228
vn 0.329590 0.632356 -0.701068
vn -0.287078 0.775321 0.562550
vn -0.390193 0.030415 0.920231
vn 0.482690 -0.125714 -0.866722
s 1
g Uth_Teeth_Lo_Msh Mouth_Grp Head_Grp Mesh CharacterRoot
usemtl Head_SG
f 8/8/1 7/7/2 5/5/3 6/6/4
f 8/8/1 6/6/4 2/2/5 4/4/6
f 7/54/2 8/8/1 4/4/6 3/3/7
f 5/5/3 7/7/2 3/53/7 1/1/8
f 11/11/9 12/12/10 6/6/4 5/5/3
f 12/12/10 10/10/11 2/2/5 6/6/4
f 9/9/12 11/11/9 5/5/3 1/1/8
f 15/15/13 16/16/14 12/12/10 11/11/9
f 16/16/14 14/14/15 10/10/11 12/12/10
f 13/13/16 15/15/13 11/11/9 9/9/12
f 19/19/17 20/20/18 16/16/14 15/15/13
f 20/20/18 18/18/19 14/14/15 16/16/14
f 17/17/20 19/19/17 15/15/13 13/13/16
f 23/23/21 24/24/22 20/20/18 19/19/17
f 24/24/22 22/22/23 18/18/19 20/20/18
f 21/21/24 23/23/21 19/19/17 17/17/20
f 50/50/25 51/51/26 24/24/22 23/23/21
f 25/25/27 22/22/23 24/24/22 51/51/26
f 52/52/28 50/50/25 23/23/21 21/21/24
f 28/28/29 27/27/30 26/26/31 29/29/32
f 28/28/29 31/31/33 30/30/34 27/27/30
f 29/55/32 32/32/35 31/31/33 28/28/29
f 26/26/31 33/33/36 32/56/35 29/29/32
f 34/34/37 26/26/31 27/27/30 35/35/38
f 35/35/38 27/27/30 30/30/34 36/36/39
f 37/37/40 33/33/36 26/26/31 34/34/37
f 38/38/41 34/34/37 35/35/38 39/39/42
f 39/39/42 35/35/38 36/36/39 40/40/43
f 41/41/44 37/37/40 34/34/37 38/38/41
f 42/42/45 38/38/41 39/39/42 43/43/46
f 43/43/46 39/39/42 40/40/43 44/44/47
f 45/45/48 41/41/44 38/38/41 42/42/45
f 46/46/49 42/42/45 43/43/46 47/47/50
f 47/47/50 43/43/46 44/44/47 48/48/51
f 49/49/52 45/45/48 42/42/45 46/46/49
f 50/50/25 46/46/49 47/47/50 51/51/26
f 25/25/27 51/51/26 47/47/50 48/48/51
f 52/52/28 49/49/52 46/46/49 50/50/25
